<svg width="605" height="324" viewBox="0 0 605 324" fill="none" xmlns="http://www.w3.org/2000/svg">
<path d="M489.438 308.421C485.927 317.791 476.97 324 466.964 324H34.722C17.9403 324 6.34009 307.217 12.2707 291.518L116.536 15.5184C120.064 6.17966 129.005 -6.10352e-05 138.988 -6.10352e-05H570.378C587.132 -6.10352e-05 598.731 16.7318 592.852 32.4208L489.438 308.421Z" fill="#93B2DB"/>
<g clip-path="url(#clip0_2019_716)">
<path d="M400.628 14.7183C346.16 -39.6109 257.833 -39.6109 203.733 14.7183C165.642 52.4725 154.233 106.802 168.954 154.685L82.4671 241.243C76.3946 247.505 72.1623 259.844 73.4504 268.684L78.9708 308.833C80.995 322.093 93.324 334.616 106.573 336.458L146.688 341.983C155.521 343.272 167.85 339.22 174.106 332.774L189.196 317.673C192.876 314.173 192.876 308.28 189.196 304.597L153.497 268.868C148.16 263.527 148.16 254.688 153.497 249.347C158.833 244.006 167.666 244.006 173.002 249.347L208.885 285.259C212.381 288.758 218.27 288.758 221.766 285.259L260.777 246.4C308.437 261.317 362.721 249.715 400.628 211.961C454.913 157.632 454.913 69.0475 400.628 14.7183ZM303.285 158C277.891 158 257.281 137.373 257.281 111.958C257.281 86.5433 277.891 65.9167 303.285 65.9167C328.679 65.9167 349.288 86.5433 349.288 111.958C349.288 137.373 328.679 158 303.285 158Z" fill="white" fill-opacity="0.1"/>
</g>
<defs>
<clipPath id="clip0_2019_716">
<rect width="413.658" height="324" fill="white" transform="translate(64.4453)"/>
</clipPath>
</defs>
</svg>
