<svg width="328" height="188" viewBox="0 0 328 188" fill="none" xmlns="http://www.w3.org/2000/svg">
<path d="M327.999 172C327.999 180.837 320.836 188 311.999 188H16C7.16342 188 -3.05176e-05 180.837 -3.05176e-05 172V47.015C-3.05176e-05 38.7802 6.25046 31.8902 14.4464 31.0906L310.446 2.21255C319.852 1.29491 327.999 8.6864 327.999 18.1369V172Z" fill="#93B2DB"/>
<g clip-path="url(#clip0_2019_755)">
<path d="M257.956 8.47371C226.819 -22.4198 176.325 -22.4198 145.398 8.47371C123.623 29.9421 117.101 60.8356 125.517 88.0637L76.0753 137.284C72.6039 140.844 70.1844 147.861 70.9207 152.888L74.0766 175.717C75.2337 183.258 82.2817 190.379 89.8557 191.426L112.788 194.568C117.837 195.301 124.885 192.997 128.462 189.332L137.088 180.744C139.192 178.754 139.192 175.403 137.088 173.309L116.68 152.992C113.63 149.955 113.63 144.929 116.68 141.892C119.731 138.855 124.78 138.855 127.831 141.892L148.344 162.313C150.342 164.303 153.709 164.303 155.707 162.313L178.009 140.216C205.254 148.699 236.286 142.101 257.956 120.633C288.989 89.7393 288.989 39.3672 257.956 8.47371ZM202.308 89.9487C187.792 89.9487 176.01 78.2197 176.01 63.7678C176.01 49.3159 187.792 37.5869 202.308 37.5869C216.825 37.5869 228.607 49.3159 228.607 63.7678C228.607 78.2197 216.825 89.9487 202.308 89.9487Z" fill="white" fill-opacity="0.1"/>
</g>
<defs>
<clipPath id="clip0_2019_755">
<rect width="236" height="188" fill="white" transform="translate(66.0071)"/>
</clipPath>
</defs>
</svg>
