<svg width="881" height="324" viewBox="0 0 881 324" fill="none" xmlns="http://www.w3.org/2000/svg">
<path d="M765.827 308.397C762.323 317.78 753.36 324 743.344 324L24 324C10.7452 324 0 313.254 0 300V24C0 10.7451 10.7452 0 24 3.05176e-05L846.418 0.000701904C863.161 0.000701904 874.759 16.7122 868.901 32.3972L765.827 308.397Z" fill="white"/>
<path d="M765.827 308.397C762.323 317.78 753.36 324 743.344 324L24 324C10.7452 324 0 313.254 0 300V24C0 10.7451 10.7452 0 24 3.05176e-05L846.418 0.000701904C863.161 0.000701904 874.759 16.7122 868.901 32.3972L765.827 308.397Z" fill="url(#paint0_linear_2019_698)"/>
<g clip-path="url(#clip0_2019_698)">
<path d="M294.208 135.031H232.923V-8.085C232.923 -41.4787 214.874 -48.2369 192.859 -23.1917L176.993 -5.10342L42.721 147.951C24.276 168.822 32.011 185.916 59.7777 185.916H121.063V329.032C121.063 362.426 139.111 369.184 161.126 344.139L176.993 326.051L311.264 172.996C329.709 152.125 321.974 135.031 294.208 135.031Z" fill="white" fill-opacity="0.6"/>
</g>
<defs>
<linearGradient id="paint0_linear_2019_698" x1="816.864" y1="324" x2="689.137" y2="-141.485" gradientUnits="userSpaceOnUse">
<stop stop-color="#CDD9E9"/>
<stop offset="0.6" stop-color="#CDD9E9" stop-opacity="0.2"/>
</linearGradient>
<clipPath id="clip0_2019_698">
<rect width="415" height="324" fill="white"/>
</clipPath>
</defs>
</svg>
