<svg width="328" height="225" viewBox="0 0 328 225" fill="none" xmlns="http://www.w3.org/2000/svg">
<path d="M327.998 176.573C327.998 184.771 321.802 191.642 313.647 192.487L17.6497 223.17C8.21115 224.148 -6.10352e-05 216.744 -6.10352e-05 207.255V16.0001C-6.10352e-05 7.16359 7.16339 0.000152588 15.9999 0.000152588L311.998 0C320.834 0 327.998 7.16345 327.998 16V176.573Z" fill="white"/>
<path d="M327.998 176.573C327.998 184.771 321.802 191.642 313.647 192.487L17.6497 223.17C8.21115 224.148 -6.10352e-05 216.744 -6.10352e-05 207.255V16.0001C-6.10352e-05 7.16359 7.16339 0.000152588 15.9999 0.000152588L311.998 0C320.834 0 327.998 7.16345 327.998 16V176.573Z" fill="url(#paint0_linear_2019_737)"/>
<g clip-path="url(#clip0_2019_737)">
<path d="M235.083 97.5154H194.03V1.72224C194.03 -20.6295 181.939 -25.1531 167.192 -8.38926L156.563 3.71793L66.6175 106.163C54.2615 120.133 59.4431 131.575 78.0434 131.575H119.097V227.368C119.097 249.72 131.187 254.244 145.935 237.48L156.563 225.373L246.509 122.927C258.865 108.957 253.684 97.5154 235.083 97.5154Z" fill="white" fill-opacity="0.6"/>
</g>
<defs>
<linearGradient id="paint0_linear_2019_737" x1="304.12" y1="224.999" x2="163.145" y2="-50.4385" gradientUnits="userSpaceOnUse">
<stop stop-color="#CDD9E9"/>
<stop offset="0.6" stop-color="#CDD9E9" stop-opacity="0.2"/>
</linearGradient>
<clipPath id="clip0_2019_737">
<rect width="278" height="224" fill="white" transform="translate(37.9978 6.10352e-05)"/>
</clipPath>
</defs>
</svg>
